<?xml version="1.0" encoding="iso-8859-1"?>
<!-- Generator: Adobe Illustrator 16.0.0, SVG Export Plug-In . SVG Version: 6.00 Build 0)  -->
<!DOCTYPE svg PUBLIC "-//W3C//DTD SVG 1.1//EN" "http://www.w3.org/Graphics/SVG/1.1/DTD/svg11.dtd">
<svg version="1.1" id="Capa_1" xmlns="http://www.w3.org/2000/svg" xmlns:xlink="http://www.w3.org/1999/xlink" x="0px" y="0px"
	 width="21.715px" height="21.715px" viewBox="0 0 21.715 21.715" style="enable-background:new 0 0 21.715 21.715;"
	 xml:space="preserve">
<g>
	<path style="fill:#121111;" d="M21.648,12.119c0.295-0.441-0.478-1.178-0.754-1.211c-0.938-0.113-1.254-0.916-1.769-1.405
		c-0.801-0.759-1.653-1.554-1.428-2.971c0.195-1.226-0.361-2.279-1.781-2.408c-0.826-0.071-1.487,0.101-2.41-0.464
		c-1.802-1.107-4.021-0.178-5.378,0.958C7.202,5.393,6.24,6.664,5.588,7.864C5.199,8.581,4.81,9.022,4.151,9.458
		c-1.13,0.75-2.36,0.806-3.603,0.812c-0.143,0.785,0.255,1.351,0.465,1.968c0.194,0.571,0.671,1.349,0.208,1.724
		c-0.929,0.753-1.856,0.988-0.638,2.543c0.803,1.021,0.456,1.433,1.789,0.472c0.276-0.197,0.532-0.245,0.837-0.275
		c3.653-0.363,7.05,1.145,10.612,1.463c0.934,0.083,1.999-0.607,2.81,0.389c0.101-0.096,0.296-0.201,0.289-0.283
		c-0.253-2.025,1.175-2.164,2.834-2.276c-0.728-0.656-0.329-1.455-0.665-2.074c-0.509-0.935-0.901-1.654,0.748-0.976
		C20.615,13.264,21.295,12.64,21.648,12.119z"/>
</g>
<g>
</g>
<g>
</g>
<g>
</g>
<g>
</g>
<g>
</g>
<g>
</g>
<g>
</g>
<g>
</g>
<g>
</g>
<g>
</g>
<g>
</g>
<g>
</g>
<g>
</g>
<g>
</g>
<g>
</g>
</svg>
