<svg version="1.0" xmlns="http://www.w3.org/2000/svg" width="933.333" height="933.333" viewBox="0 0 700 700">
  <path d="M328 .6c-1.9.2-8.4.9-14.5 1.4-86.1 8.2-170.2 52.1-227.8 118.9C38.2 176 10.6 239.6 1.8 313.5c-1.7 14.4-1.7 58.6 0 73 8.2 68.9 33.5 130 75.8 183 11.3 14.2 38.8 41.7 52.9 52.9 53.6 42.7 113.8 67.6 183 75.8 14.4 1.7 58.6 1.7 73 0 69.2-8.2 129.4-33.1 183-75.8 14.1-11.2 41.5-38.7 52.9-52.9 33.1-41.3 57.8-92.4 69-142.7 22.2-99.4.4-202.9-59.9-284.4C573.4 64 488.5 14.6 391 2.4 380 1 335.4-.3 328 .6zM519 229c6.1 3 10.6 7.5 13.8 13.5 2.2 4.1 2.7 6.3 2.7 12.5 0 13.7 6.2 6.7-102.8 115.7-80.9 80.9-99.1 98.6-103 100.3-7.1 3.1-14.3 3.6-21.3 1.5-5.8-1.8-6.9-2.8-58.1-53.8-57.8-57.6-56.7-56.3-56.7-68.7 0-17 14.1-30.1 30.9-28.8 3.4.3 7.9 1.3 10.1 2.3 2.6 1.2 17.2 15.1 43.2 40.9l39.2 39.1 86.3-86.2c47.4-47.3 87.3-86.7 88.7-87.4 8.7-4.4 19.3-4.8 27-.9z"/>
</svg>
